<svg width="204" height="72" viewBox="0 0 204 72" fill="none" xmlns="http://www.w3.org/2000/svg">
<path d="M66.8878 17.3307L65.5278 15.2507L68.7278 12.6307H63.3078V9.9907H72.6678V12.4307L69.4678 14.9107C71.4678 15.0507 73.1078 16.6507 73.1078 18.8707C73.1078 21.1707 71.2078 23.2507 68.0078 23.2507C64.9878 23.2507 63.0678 21.3107 62.8678 19.0907L65.9078 18.5307C65.9478 19.6707 66.7678 20.5707 67.9878 20.5707C69.2078 20.5707 69.9278 19.7507 69.9278 18.7907C69.9278 17.5507 68.9678 17.0307 68.0478 17.0307C67.6278 17.0307 67.1878 17.1707 66.8878 17.3307ZM84.4476 10.2307L83.6076 12.7907C83.0076 12.5707 82.2876 12.3707 81.5676 12.3707C79.4276 12.3707 77.7476 13.4307 77.3676 15.6707C77.8276 14.9307 78.9276 14.3107 80.4476 14.3107C83.0876 14.3107 84.7876 16.1107 84.7876 18.6307C84.7876 21.2907 82.6876 23.2707 79.6676 23.2707C76.5876 23.2707 74.2876 21.0307 74.2876 17.3107C74.2876 12.7107 77.2476 9.6907 81.7476 9.6907C82.9676 9.6907 83.9276 9.9307 84.4476 10.2307ZM77.6076 18.7507C77.6076 19.8507 78.5076 20.6307 79.6276 20.6307C80.7476 20.6307 81.6676 19.8907 81.6676 18.7507C81.6676 17.5907 80.7476 16.8507 79.6276 16.8507C78.5076 16.8507 77.6076 17.5907 77.6076 18.7507ZM85.7473 19.2707L88.6673 18.6707C88.7273 19.6707 89.4873 20.6107 90.7673 20.6107C91.8273 20.6107 92.7073 19.9107 92.7073 18.7307C92.7073 17.4307 91.7273 16.8107 90.6873 16.8107C89.8073 16.8107 89.1873 17.2507 88.8673 17.6507C88.8073 17.6307 86.1073 16.7707 86.0473 16.7307L87.5073 9.9907H95.0473V12.6307H89.6873L89.1673 15.0707C89.6673 14.6307 90.6273 14.3707 91.3673 14.3707C94.0273 14.3707 95.8473 15.9107 95.8473 18.7107C95.8473 21.1307 94.0073 23.2907 90.7673 23.2907C87.8873 23.2907 85.9073 21.3107 85.7473 19.2707ZM105.982 19.9907H107.822C110.002 19.9907 111.782 18.7307 111.782 15.8907C111.782 13.0507 110.002 11.7707 107.822 11.7707H105.982V19.9907ZM107.942 22.9707H102.822V8.7907H107.962C112.222 8.7907 115.082 11.5107 115.082 15.8907C115.082 20.2707 112.222 22.9707 107.942 22.9707ZM126.052 22.9707L125.032 20.0907H119.552L118.532 22.9707H115.212L120.552 8.7907H124.212L129.492 22.9707H126.052ZM122.332 12.3107L120.592 17.2107H124.032L122.332 12.3107ZM133.062 17.0507L128.142 8.7907H131.842L134.742 14.0507L137.682 8.7907H141.202L136.222 17.0507V22.9707H133.062V17.0507Z" fill="black"/>
<path d="M49.7957 43.9707V32.627H52.3582L56.0378 41.2832L59.6707 32.627H62.28V43.9707H60.3738V35.6191L56.8347 43.9707H55.1707L51.6707 35.6504V43.9707H49.7957ZM64.3113 38.291C64.3113 37.5671 64.4154 36.89 64.6238 36.2598C64.8321 35.6243 65.1186 35.0749 65.4832 34.6113C65.8477 34.1426 66.2722 33.7389 66.7566 33.4004C67.241 33.0618 67.7644 32.8092 68.3269 32.6426C68.8946 32.4707 69.4753 32.3848 70.0691 32.3848C70.6681 32.3848 71.2488 32.4707 71.8113 32.6426C72.379 32.8092 72.905 33.0618 73.3894 33.4004C73.879 33.7389 74.3061 34.1426 74.6707 34.6113C75.0404 35.0749 75.3295 35.6243 75.5378 36.2598C75.7462 36.89 75.8503 37.5671 75.8503 38.291C75.8503 39.1921 75.6889 40.0228 75.366 40.7832C75.0431 41.5384 74.6108 42.1634 74.0691 42.6582C73.5326 43.1478 72.9181 43.5306 72.2253 43.8066C71.5378 44.0775 70.8191 44.2129 70.0691 44.2129C69.3191 44.2129 68.6003 44.0775 67.9128 43.8066C67.2253 43.5306 66.6134 43.1478 66.0769 42.6582C65.5404 42.1634 65.1108 41.5384 64.7878 40.7832C64.4701 40.0228 64.3113 39.1921 64.3113 38.291ZM66.491 36.8223C66.3503 37.2702 66.28 37.7598 66.28 38.291C66.28 38.8223 66.3503 39.3145 66.491 39.7676C66.6316 40.2155 66.8217 40.5983 67.0613 40.916C67.3061 41.2337 67.5899 41.5046 67.9128 41.7285C68.2358 41.9525 68.5795 42.1191 68.9441 42.2285C69.3087 42.3327 69.6837 42.3848 70.0691 42.3848C70.5587 42.3848 71.0274 42.2988 71.4753 42.127C71.9285 41.9499 72.3347 41.6973 72.6941 41.3691C73.0535 41.041 73.3399 40.6113 73.5535 40.0801C73.7722 39.5488 73.8816 38.9525 73.8816 38.291C73.8816 37.6296 73.7722 37.0332 73.5535 36.502C73.3399 35.9707 73.0535 35.541 72.6941 35.2129C72.3347 34.8848 71.9285 34.6348 71.4753 34.4629C71.0274 34.2858 70.5587 34.1973 70.0691 34.1973C69.6837 34.1973 69.3087 34.252 68.9441 34.3613C68.5795 34.4655 68.2358 34.6296 67.9128 34.8535C67.5899 35.0775 67.3061 35.3483 67.0613 35.666C66.8217 35.9837 66.6316 36.3691 66.491 36.8223ZM77.8738 43.9707V32.627H80.3191L85.4753 40.6738V32.627H87.3972V43.9707H85.3972L79.7957 35.377V43.9707H77.8738ZM90.1082 43.9707V32.627H97.116V34.416H92.03V37.4238H96.6394V39.1738H92.03V42.1816H97.116V43.9707H90.1082ZM98.2644 32.627H100.538L103.257 37.377L105.999 32.627H108.155L104.155 39.1738V43.9707H102.233V39.1738L98.2644 32.627ZM113.639 43.9707V32.627H117.546C118.613 32.627 119.455 32.9108 120.069 33.4785C120.689 34.041 120.999 34.7754 120.999 35.6816C120.999 36.2702 120.845 36.7806 120.538 37.2129C120.231 37.64 119.824 37.9447 119.319 38.127C119.928 38.2884 120.418 38.6139 120.788 39.1035C121.163 39.5931 121.35 40.1712 121.35 40.8379C121.35 41.7546 121.025 42.5072 120.374 43.0957C119.728 43.679 118.882 43.9707 117.835 43.9707H113.639ZM115.546 42.3379H117.499C118.077 42.3379 118.538 42.1921 118.882 41.9004C119.225 41.6035 119.397 41.2051 119.397 40.7051C119.397 40.2051 119.236 39.804 118.913 39.502C118.595 39.1947 118.145 39.041 117.561 39.041H115.546V42.3379ZM115.546 37.4238H117.288C117.84 37.4238 118.275 37.2806 118.593 36.9941C118.915 36.7077 119.077 36.3249 119.077 35.8457C119.077 35.3613 118.915 34.9759 118.593 34.6895C118.27 34.403 117.819 34.2598 117.241 34.2598H115.546V37.4238ZM121.858 43.9707L126.28 32.627H128.499L132.921 43.9707H130.819L129.749 41.1191H124.952L123.897 43.9707H121.858ZM125.624 39.3457H129.077L127.35 34.7051L125.624 39.3457ZM133.264 38.3066C133.264 37.4108 133.423 36.5853 133.741 35.8301C134.059 35.0749 134.483 34.4499 135.014 33.9551C135.546 33.4603 136.152 33.0749 136.835 32.7988C137.522 32.5228 138.236 32.3848 138.975 32.3848C139.673 32.3848 140.316 32.4837 140.905 32.6816C141.499 32.8743 142.004 33.1426 142.421 33.4863C142.837 33.8249 143.184 34.2129 143.46 34.6504C143.741 35.0827 143.947 35.554 144.077 36.0645L142.272 36.6738C142.09 35.9395 141.72 35.3431 141.163 34.8848C140.611 34.4264 139.882 34.1973 138.975 34.1973C138.496 34.1973 138.035 34.2858 137.593 34.4629C137.155 34.6348 136.759 34.8848 136.405 35.2129C136.051 35.541 135.767 35.9733 135.553 36.5098C135.34 37.0462 135.233 37.6452 135.233 38.3066C135.233 38.9473 135.337 39.5306 135.546 40.0566C135.754 40.5827 136.033 41.0124 136.382 41.3457C136.736 41.6738 137.137 41.9264 137.585 42.1035C138.033 42.2806 138.501 42.3691 138.991 42.3691C139.882 42.3691 140.613 42.1322 141.186 41.6582C141.759 41.179 142.152 40.5853 142.366 39.877L144.132 40.4473C143.996 40.9421 143.788 41.4108 143.507 41.8535C143.231 42.291 142.882 42.6895 142.46 43.0488C142.043 43.4082 141.535 43.6921 140.936 43.9004C140.337 44.1087 139.689 44.2129 138.991 44.2129C138.225 44.2129 137.496 44.0775 136.803 43.8066C136.116 43.5306 135.509 43.1452 134.983 42.6504C134.457 42.1556 134.038 41.5332 133.725 40.7832C133.418 40.0332 133.264 39.2077 133.264 38.3066ZM146.077 43.9707V32.627H147.999V38.0645L152.874 32.627H155.405L150.811 37.6348L155.452 43.9707H153.038L149.499 39.0566L147.999 40.7051V43.9707H146.077ZM54.6785 58.291C54.6785 57.5671 54.78 56.8874 54.9832 56.252C55.1915 55.6165 55.4753 55.0671 55.8347 54.6035C56.1993 54.1348 56.6212 53.7337 57.1003 53.4004C57.5847 53.0618 58.1056 52.8092 58.6628 52.6426C59.2253 52.4707 59.8009 52.3848 60.3894 52.3848C61.0561 52.3848 61.6785 52.4759 62.2566 52.6582C62.8347 52.8405 63.3347 53.0931 63.7566 53.416C64.1837 53.7337 64.5431 54.0983 64.8347 54.5098C65.1316 54.9212 65.3582 55.3665 65.5144 55.8457L63.7019 56.5332C63.4988 55.8457 63.1108 55.2806 62.5378 54.8379C61.9649 54.39 61.2488 54.166 60.3894 54.166C59.9154 54.166 59.4597 54.252 59.0222 54.4238C58.5847 54.5905 58.1837 54.8379 57.8191 55.166C57.4597 55.4941 57.1707 55.929 56.9519 56.4707C56.7384 57.0072 56.6316 57.6139 56.6316 58.291C56.6316 58.9629 56.7332 59.5671 56.9363 60.1035C57.1446 60.64 57.4233 61.0775 57.7722 61.416C58.1212 61.7493 58.517 62.0046 58.9597 62.1816C59.4076 62.3587 59.879 62.4473 60.3738 62.4473C60.8113 62.4473 61.2123 62.39 61.5769 62.2754C61.9415 62.1608 62.2436 62.015 62.4832 61.8379C62.7227 61.6608 62.9259 61.4577 63.0925 61.2285C63.2644 60.9941 63.3894 60.7676 63.4675 60.5488C63.5509 60.3301 63.6029 60.1165 63.6238 59.9082H59.8816V58.2285H65.4285V63.9707H63.8816L63.7332 62.5332C63.4571 63.002 63.0196 63.4004 62.4207 63.7285C61.8217 64.0514 61.1029 64.2129 60.2644 64.2129C59.5196 64.2129 58.8113 64.0775 58.1394 63.8066C57.4675 63.5358 56.8738 63.1556 56.3582 62.666C55.8477 62.1712 55.4389 61.5462 55.1316 60.791C54.8295 60.0358 54.6785 59.2025 54.6785 58.291ZM67.6316 60.0176V52.627H69.53V59.9082C69.53 60.6999 69.7358 61.3118 70.1472 61.7441C70.5587 62.1712 71.1264 62.3848 71.8503 62.3848C72.5847 62.3848 73.155 62.1712 73.5613 61.7441C73.9675 61.3171 74.1707 60.7051 74.1707 59.9082V52.627H76.0925V60.0176C76.0925 60.903 75.9024 61.6686 75.5222 62.3145C75.142 62.9551 74.6368 63.4316 74.0066 63.7441C73.3764 64.0566 72.6576 64.2129 71.8503 64.2129C71.2566 64.2129 70.7045 64.1217 70.1941 63.9395C69.6837 63.7572 69.2358 63.4941 68.8503 63.1504C68.4701 62.8014 68.1707 62.3587 67.9519 61.8223C67.7384 61.2858 67.6316 60.6842 67.6316 60.0176ZM77.0222 63.9707L81.4441 52.627H83.6628L88.0847 63.9707H85.9832L84.9128 61.1191H80.116L79.0613 63.9707H77.0222ZM80.7878 59.3457H84.241L82.5144 54.7051L80.7878 59.3457ZM89.6003 63.9707V52.627H93.9519C95.0248 52.627 95.8842 52.9551 96.53 53.6113C97.1811 54.2624 97.5066 55.0801 97.5066 56.0645C97.5066 56.8717 97.2774 57.5645 96.8191 58.1426C96.3608 58.7207 95.7358 59.1061 94.9441 59.2988L97.5066 63.9707H95.3269L92.9441 59.4941H91.5378V63.9707H89.6003ZM91.5378 57.791H93.6003C94.1941 57.791 94.6681 57.6348 95.0222 57.3223C95.3764 57.0046 95.5535 56.5853 95.5535 56.0645C95.5535 55.5384 95.3764 55.1165 95.0222 54.7988C94.6681 54.4811 94.1941 54.3223 93.6003 54.3223H91.5378V57.791ZM98.3035 63.9707L102.725 52.627H104.944L109.366 63.9707H107.264L106.194 61.1191H101.397L100.343 63.9707H98.3035ZM102.069 59.3457H105.522L103.796 54.7051L102.069 59.3457ZM110.882 63.9707V52.627H113.327L118.483 60.6738V52.627H120.405V63.9707H118.405L112.803 55.377V63.9707H110.882ZM121.968 54.4316V52.627H131.264V54.4316H127.561V63.9707H125.647V54.4316H121.968ZM132.835 63.9707V52.627H139.843V54.416H134.757V57.4238H139.366V59.1738H134.757V62.1816H139.843V63.9707H132.835ZM142.147 63.9707V52.627H149.155V54.416H144.069V57.4238H148.678V59.1738H144.069V62.1816H149.155V63.9707H142.147Z" fill="black"/>
<path d="M28.3283 8.48418L32.3704 4.07572C30.1269 4.4172 28.837 4.88019 26.4845 6.1567L26.7427 3.99598C24.2115 4.99748 22.9075 5.76841 20.7765 7.49544C19.94 11.0014 19.5573 12.8366 19.1273 15.7323C20.0029 17.2076 20.5251 17.8751 21.5136 18.7751C23.7914 14.7804 25.5841 12.8186 30.0427 9.9973L28.3283 8.48418Z" fill="black"/>
<path d="M17.1569 16.6417C17.3472 14.7308 17.6889 13.0291 18.6579 9.02344C16.9782 9.93064 16.0671 10.6212 14.4822 12.0938C13.4497 16.4771 13.2446 18.7022 13.3863 22.3552C12.7909 22.6728 12.2039 22.143 11.943 20.2524C11.7342 18.74 11.1693 18.1544 10.9129 18.0506C9.43434 22.3469 8.33708 27.7735 8.48885 30.8749C9.82875 29.9058 10.6468 29.4719 12.3067 29.0271C12.9638 30.3548 13.3497 31.0543 14.0807 32.1876C15.4475 30.3474 16.359 29.4073 18.2309 27.8698C18.6842 24.8127 19.1024 23.1364 20.0688 20.1999C18.86 18.991 18.2243 18.2064 17.1569 16.6417Z" fill="black"/>
<path d="M12.723 34.8742C12.0847 33.3937 11.6599 32.6082 10.7921 31.2849C9.7411 32.0205 9.20173 32.6079 8.33046 33.9737C8.43316 39.3439 8.95369 42.1732 11.0425 46.7623C12.2647 47.5725 13.2481 47.8758 15.3631 48.2339C13.097 42.4878 12.5315 39.5681 12.723 34.8742Z" fill="black"/>
<path d="M21.043 43.4912C20.267 46.4186 19.957 48.1025 19.7729 51.2291C15.6674 45.1459 14.5959 41.5967 14.8228 34.7791C15.9045 32.0358 16.9351 30.9281 19.2249 29.4098L18.2469 35.3869C18.8103 37.9433 19.4482 39.7475 21.043 43.4912Z" fill="black"/>
<path d="M21.7779 54.509C21.5486 51.0209 21.6349 49.1227 22.3507 45.8889C23.9397 48.4211 24.9296 49.6398 26.8436 51.5169C26.4497 52.7093 26.1031 55.4198 27.8678 56.7226C29.6326 58.0254 29.7589 58.5821 29.6014 58.6976C19.1949 60.1645 14.4235 55.1346 12.2635 49.7929C13.984 50.5462 14.9812 50.8333 16.8722 50.8748C18.6724 53.178 19.7576 53.89 21.7779 54.509Z" fill="black"/>
<path d="M24.7098 64.2133C19.6956 63.0362 17.7254 60.1346 17.3671 58.8309L17.4248 58.8636C19.1761 59.8562 20.8939 60.8299 25.0081 61.3433C29.1675 61.8624 32.3666 59.3467 36.9138 60.4141C41.4611 61.4816 41.9826 63.368 41.701 64.5432C41.4194 65.7184 40.3939 65.935 37.826 66.9002C35.9841 67.5925 33.7653 69.1906 32.6017 70.1285C32.4142 70.2797 32.1364 70.2279 32.0219 70.0175L31.7324 69.4856C31.5159 69.088 31.4958 68.5935 31.818 68.2717C33.3059 66.7857 37.2782 65.8137 38.7326 65.2837C40.3682 64.6877 40.2367 63.6115 38.0245 63.0922C33.846 62.1113 30.9776 65.6846 24.7098 64.2133Z" fill="black"/>
<path d="M175.672 8.48418L171.63 4.07572C173.873 4.4172 175.163 4.88019 177.515 6.1567L177.257 3.99598C179.789 4.99748 181.093 5.76841 183.223 7.49544C184.06 11.0014 184.443 12.8366 184.873 15.7323C183.997 17.2076 183.475 17.8751 182.486 18.7751C180.209 14.7804 178.416 12.8186 173.957 9.9973L175.672 8.48418Z" fill="black"/>
<path d="M186.843 16.6417C186.653 14.7308 186.311 13.0291 185.342 9.02344C187.022 9.93064 187.933 10.6212 189.518 12.0938C190.55 16.4771 190.755 18.7022 190.614 22.3552C191.209 22.6728 191.796 22.143 192.057 20.2524C192.266 18.74 192.831 18.1544 193.087 18.0506C194.566 22.3469 195.663 27.7735 195.511 30.8749C194.171 29.9058 193.353 29.4719 191.693 29.0271C191.036 30.3548 190.65 31.0543 189.919 32.1876C188.553 30.3474 187.641 29.4073 185.769 27.8698C185.316 24.8127 184.898 23.1364 183.931 20.1999C185.14 18.991 185.776 18.2064 186.843 16.6417Z" fill="black"/>
<path d="M191.277 34.8742C191.915 33.3937 192.34 32.6082 193.208 31.2849C194.259 32.0205 194.798 32.6079 195.67 33.9737C195.567 39.3439 195.046 42.1732 192.957 46.7623C191.735 47.5725 190.752 47.8758 188.637 48.2339C190.903 42.4878 191.468 39.5681 191.277 34.8742Z" fill="black"/>
<path d="M182.957 43.4912C183.733 46.4186 184.043 48.1025 184.227 51.2291C188.333 45.1459 189.404 41.5967 189.177 34.7791C188.096 32.0358 187.065 30.9281 184.775 29.4098L185.753 35.3869C185.19 37.9433 184.552 39.7475 182.957 43.4912Z" fill="black"/>
<path d="M182.222 54.509C182.451 51.0209 182.365 49.1227 181.649 45.8889C180.06 48.4211 179.07 49.6398 177.156 51.5169C177.55 52.7093 177.897 55.4198 176.132 56.7226C174.367 58.0254 174.241 58.5821 174.399 58.6976C184.805 60.1645 189.577 55.1346 191.737 49.7929C190.016 50.5462 189.019 50.8333 187.128 50.8748C185.328 53.178 184.242 53.89 182.222 54.509Z" fill="black"/>
<path d="M179.29 64.2133C184.304 63.0362 186.275 60.1346 186.633 58.8309L186.575 58.8636C184.824 59.8562 183.106 60.8299 178.992 61.3433C174.832 61.8624 171.633 59.3467 167.086 60.4141C162.539 61.4816 162.017 63.368 162.299 64.5432C162.581 65.7184 163.606 65.935 166.174 66.9002C168.016 67.5925 170.235 69.1906 171.398 70.1285C171.586 70.2797 171.864 70.2279 171.978 70.0175L172.268 69.4856C172.484 69.088 172.504 68.5935 172.182 68.2717C170.694 66.7857 166.722 65.8137 165.267 65.2837C163.632 64.6877 163.763 63.6115 165.975 63.0922C170.154 62.1113 173.022 65.6846 179.29 64.2133Z" fill="black"/>
</svg>
